<svg width="512" height="128" viewBox="0 0 512 128" fill="none" xmlns="http://www.w3.org/2000/svg">
<path d="M493.254 18.7446C518.248 43.7381 518.248 84.2607 493.254 109.254C468.261 134.248 427.738 134.248 402.745 109.254C377.751 84.2607 377.751 43.7381 402.745 18.7446C427.738 -6.24885 468.261 -6.24885 493.254 18.7446Z" fill="#999999"/>
<path d="M301.255 18.7446C326.249 43.7381 326.249 84.2607 301.255 109.254C276.262 134.248 235.739 134.248 210.746 109.254C185.752 84.2607 185.752 43.7381 210.746 18.7446C235.739 -6.24885 276.262 -6.24885 301.255 18.7446Z" fill="#999999"/>
<path d="M109.255 18.7446C134.249 43.7381 134.249 84.2607 109.255 109.254C84.2619 134.248 43.7393 134.248 18.7458 109.254C-6.24763 84.2607 -6.24763 43.7381 18.7458 18.7446C43.7393 -6.24885 84.2619 -6.24885 109.255 18.7446Z" fill="#999999"/>
</svg>
