<svg width="432" height="80" viewBox="0 0 432 80" fill="none" xmlns="http://www.w3.org/2000/svg">
<path d="M166.736 40.0539H150.129L147.034 57.7622H138.313L145.843 14.4289H173.284L172.004 21.661H153.313L151.349 32.8515H168.016L166.736 40.0539ZM190.754 48.8336H175.635L171.171 57.7622H161.558L184.712 14.4289H192.778L201.022 57.7622H192.123L190.754 48.8336ZM179.206 41.6015H189.653L187.212 25.4705L179.206 41.6015ZM229.236 46.1848C229.653 43.8237 228.492 42.0182 225.754 40.7682L220.01 38.4765C213.343 35.5003 210.179 31.4031 210.516 26.1848C210.655 23.7642 211.448 21.6213 212.897 19.7563C214.345 17.8912 216.379 16.4328 218.998 15.3813C221.617 14.3098 224.444 13.794 227.48 13.8336C231.667 13.913 235.05 15.163 237.629 17.5836C240.208 19.9844 241.478 23.2086 241.438 27.2563H232.748C232.847 25.292 232.411 23.7642 231.438 22.6729C230.486 21.5817 228.998 21.0162 226.974 20.9765C224.99 20.9368 223.264 21.3932 221.796 22.3455C220.327 23.2781 219.454 24.5678 219.177 26.2146C218.8 28.3773 220.248 30.0936 223.522 31.3634L227.45 32.8515L229.712 33.8932C235.565 36.79 238.304 40.8574 237.927 46.0955C237.748 48.6551 236.925 50.8674 235.456 52.7324C234.008 54.5777 232.024 55.9963 229.504 56.9884C227.004 57.9805 224.246 58.4467 221.23 58.3872C218.155 58.3277 215.417 57.6828 213.016 56.4527C210.615 55.2225 208.79 53.4864 207.54 51.2443C206.369 49.161 205.823 46.7801 205.903 44.1015L214.623 44.1313C214.345 48.8336 216.657 51.2245 221.558 51.3039C223.681 51.3039 225.427 50.8376 226.796 49.9051C228.165 48.9725 228.978 47.7324 229.236 46.1848ZM280.01 21.661H267.153L260.903 57.7622H252.183L258.433 21.661H245.724L247.004 14.4289H281.29L280.01 21.661ZM307.391 40.0539H290.784L287.688 57.7622H278.968L286.498 14.4289H313.938L312.659 21.661H293.968L292.004 32.8515H308.671L307.391 40.0539ZM340.248 38.9824H323.641L321.617 50.5896H341.141L339.891 57.7622H311.647L319.177 14.4289H347.361L346.081 21.661H326.647L324.831 31.9884H341.498L340.248 38.9824ZM373.819 38.9824H357.212L355.188 50.5896H374.712L373.462 57.7622H345.218L352.748 14.4289H380.933L379.653 21.661H360.218L358.403 31.9884H375.069L373.819 38.9824ZM417.331 21.661H404.474L398.224 57.7622H389.504L395.754 21.661H383.046L384.325 14.4289H418.611L417.331 21.661Z" fill="#7D40E7"/>
<path d="M115.363 53.9683C89.2579 53.9683 63.1487 53.9683 37.0433 53.9683C34.0338 53.9683 34.0338 58.6298 37.0433 58.6298C63.1487 58.6298 89.2579 58.6298 115.363 58.6298C118.373 58.6286 118.373 53.9683 115.363 53.9683Z" fill="#7D40E7"/>
<path d="M121.272 40.6909C97.132 40.6909 72.9911 40.6909 48.8527 40.6909C45.9625 40.6909 45.9625 45.1747 48.8527 45.1747C72.9898 45.1747 97.132 45.1747 121.272 45.1747C124.159 45.1747 124.159 40.6909 121.272 40.6909Z" fill="#7D40E7"/>
<path d="M106.972 27.5493C80.8653 27.5493 54.7574 27.5493 28.6507 27.5493C25.6425 27.5493 25.6425 32.2096 28.6507 32.2096C54.7574 32.2096 80.8653 32.2096 106.972 32.2096C109.979 32.2122 109.979 27.5493 106.972 27.5493Z" fill="#7D40E7"/>
<path d="M34.2432 79.6077C22.9327 79.6077 13.7301 70.4052 13.7301 59.0947C13.7301 58.4496 13.7962 57.8782 13.88 57.3588C5.72634 54.5512 0.0539551 46.795 0.0539551 37.962C0.0539551 26.649 9.2565 17.4477 20.5682 17.4477C21.2209 17.4477 21.8736 17.4769 22.5225 17.5391C24.0273 7.76642 32.3232 0.509277 42.6343 0.509277C52.3371 0.509277 60.7905 7.39944 62.7308 16.8915C63.0203 18.3201 62.1009 19.7182 60.6711 20.0102C59.2451 20.2985 57.8406 19.3804 57.5498 17.948C56.1111 10.9042 49.8368 5.79436 42.6305 5.79436C34.1797 5.79436 27.56 12.3632 27.56 20.7493C27.56 21.6255 27.127 22.4471 26.3981 22.9398C25.673 23.4299 24.7498 23.5302 23.9359 23.2052L23.4152 22.9969C22.4819 22.8204 21.5244 22.7302 20.5657 22.7302C12.1682 22.7302 5.33776 29.5607 5.33776 37.9607C5.33776 45.2217 10.4984 51.5048 17.6095 52.9029C18.393 53.0553 19.0635 53.5582 19.4368 54.2579C19.8089 54.9652 19.8432 55.8007 19.5308 56.5347L19.306 57.0604C19.2768 57.2178 19.2451 57.3728 19.2159 57.5264C19.1016 58.1207 19.0101 58.5905 19.0101 59.0934C19.0101 67.4909 25.8406 74.3213 34.2381 74.3213C40.44 74.3213 45.9714 70.6185 48.3321 64.8813C48.8844 63.5315 50.4298 62.8864 51.7797 63.4413C53.1295 63.9963 53.7746 65.5404 53.2184 66.8902C50.0476 74.6185 42.5975 79.6077 34.2432 79.6077Z" fill="#7D40E7"/>
</svg>
